<svg width="57" height="12" viewBox="0 0 57 12" fill="none" xmlns="http://www.w3.org/2000/svg">
<path d="M3.58678 11.2358C2.89076 11.2358 2.27286 11.1198 1.73309 10.8878C1.19805 10.6511 0.774281 10.2959 0.461781 9.82245C0.154016 9.34423 0.000133201 8.74528 0.000133201 8.02558C0.000133201 7.41952 0.106667 6.90815 0.319735 6.49149C0.532804 6.07482 0.826364 5.73628 1.20042 5.47586C1.57447 5.21545 2.00534 5.01895 2.49303 4.88637C2.98072 4.74906 3.50155 4.65673 4.05553 4.60939C4.6758 4.55257 5.17532 4.49338 5.55411 4.43183C5.9329 4.36554 6.20752 4.27321 6.37797 4.15484C6.55316 4.03173 6.64076 3.85891 6.64076 3.63637V3.60086C6.64076 3.23628 6.51528 2.95456 6.26434 2.75569C6.01339 2.55683 5.67485 2.4574 5.24871 2.4574C4.78943 2.4574 4.42011 2.55683 4.14076 2.75569C3.8614 2.95456 3.68385 3.22918 3.60809 3.57956L0.404963 3.46592C0.49966 2.80304 0.743504 2.21119 1.1365 1.69035C1.53422 1.16478 2.07873 0.752852 2.77002 0.454556C3.46604 0.151526 4.30174 1.12057e-05 5.27712 1.12057e-05C5.97314 1.12057e-05 6.61472 0.0828708 7.20184 0.24859C7.78896 0.409575 8.30032 0.646317 8.73593 0.958817C9.17154 1.26658 9.50771 1.64537 9.74445 2.09518C9.98593 2.54499 10.1067 3.05872 10.1067 3.63637V11.0511H6.83962V9.53126H6.75439C6.56027 9.90058 6.31169 10.2131 6.00866 10.4688C5.71036 10.7244 5.35761 10.9162 4.95042 11.044C4.54796 11.1719 4.09341 11.2358 3.58678 11.2358ZM4.65922 8.96308C5.03328 8.96308 5.36945 8.88732 5.66775 8.73581C5.97078 8.58429 6.21225 8.37596 6.39218 8.11081C6.5721 7.84092 6.66207 7.52842 6.66207 7.17331V6.13637C6.56263 6.18846 6.44189 6.23581 6.29985 6.27842C6.16254 6.32103 6.01102 6.36128 5.8453 6.39916C5.67958 6.43704 5.50913 6.47018 5.33394 6.49859C5.15875 6.527 4.99066 6.55304 4.82968 6.57672C4.50297 6.6288 4.22362 6.70929 3.99161 6.81819C3.76434 6.92709 3.58915 7.06914 3.46604 7.24433C3.34767 7.41478 3.28849 7.61838 3.28849 7.85512C3.28849 8.21497 3.41633 8.48959 3.67201 8.67899C3.93242 8.86838 4.2615 8.96308 4.65922 8.96308ZM15.3055 11.2358C14.6095 11.2358 13.9916 11.1198 13.4518 10.8878C12.9168 10.6511 12.493 10.2959 12.1805 9.82245C11.8728 9.34423 11.7189 8.74528 11.7189 8.02558C11.7189 7.41952 11.8254 6.90815 12.0385 6.49149C12.2516 6.07482 12.5451 5.73628 12.9192 5.47586C13.2932 5.21545 13.7241 5.01895 14.2118 4.88637C14.6995 4.74906 15.2203 4.65673 15.7743 4.60939C16.3945 4.55257 16.8941 4.49338 17.2729 4.43183C17.6516 4.36554 17.9263 4.27321 18.0967 4.15484C18.2719 4.03173 18.3595 3.85891 18.3595 3.63637V3.60086C18.3595 3.23628 18.234 2.95456 17.9831 2.75569C17.7321 2.55683 17.3936 2.4574 16.9675 2.4574C16.5082 2.4574 16.1389 2.55683 15.8595 2.75569C15.5802 2.95456 15.4026 3.22918 15.3268 3.57956L12.1237 3.46592C12.2184 2.80304 12.4623 2.21119 12.8552 1.69035C13.253 1.16478 13.7975 0.752852 14.4888 0.454556C15.1848 0.151526 16.0205 1.12057e-05 16.9959 1.12057e-05C17.6919 1.12057e-05 18.3335 0.0828708 18.9206 0.24859C19.5077 0.409575 20.0191 0.646317 20.4547 0.958817C20.8903 1.26658 21.2265 1.64537 21.4632 2.09518C21.7047 2.54499 21.8254 3.05872 21.8254 3.63637V11.0511H18.5584V9.53126H18.4731C18.279 9.90058 18.0304 10.2131 17.7274 10.4688C17.4291 10.7244 17.0764 10.9162 16.6692 11.044C16.2667 11.1719 15.8122 11.2358 15.3055 11.2358ZM16.378 8.96308C16.752 8.96308 17.0882 8.88732 17.3865 8.73581C17.6895 8.58429 17.931 8.37596 18.1109 8.11081C18.2909 7.84092 18.3808 7.52842 18.3808 7.17331V6.13637C18.2814 6.18846 18.1606 6.23581 18.0186 6.27842C17.8813 6.32103 17.7298 6.36128 17.5641 6.39916C17.3983 6.43704 17.2279 6.47018 17.0527 6.49859C16.8775 6.527 16.7094 6.55304 16.5484 6.57672C16.2217 6.6288 15.9424 6.70929 15.7104 6.81819C15.4831 6.92709 15.3079 7.06914 15.1848 7.24433C15.0664 7.41478 15.0072 7.61838 15.0072 7.85512C15.0072 8.21497 15.1351 8.48959 15.3908 8.67899C15.6512 8.86838 15.9802 8.96308 16.378 8.96308ZM27.0243 11.2358C26.3283 11.2358 25.7104 11.1198 25.1706 10.8878C24.6355 10.6511 24.2118 10.2959 23.8993 9.82245C23.5915 9.34423 23.4376 8.74528 23.4376 8.02558C23.4376 7.41952 23.5442 6.90815 23.7572 6.49149C23.9703 6.07482 24.2639 5.73628 24.6379 5.47586C25.012 5.21545 25.4428 5.01895 25.9305 4.88637C26.4182 4.74906 26.9391 4.65673 27.493 4.60939C28.1133 4.55257 28.6128 4.49338 28.9916 4.43183C29.3704 4.36554 29.645 4.27321 29.8155 4.15484C29.9907 4.03173 30.0783 3.85891 30.0783 3.63637V3.60086C30.0783 3.23628 29.9528 2.95456 29.7018 2.75569C29.4509 2.55683 29.1123 2.4574 28.6862 2.4574C28.2269 2.4574 27.8576 2.55683 27.5783 2.75569C27.2989 2.95456 27.1213 3.22918 27.0456 3.57956L23.8425 3.46592C23.9372 2.80304 24.181 2.21119 24.574 1.69035C24.9717 1.16478 25.5162 0.752852 26.2075 0.454556C26.9035 0.151526 27.7392 1.12057e-05 28.7146 1.12057e-05C29.4106 1.12057e-05 30.0522 0.0828708 30.6393 0.24859C31.2265 0.409575 31.7378 0.646317 32.1734 0.958817C32.609 1.26658 32.9452 1.64537 33.182 2.09518C33.4234 2.54499 33.5442 3.05872 33.5442 3.63637V11.0511H30.2771V9.53126H30.1919C29.9978 9.90058 29.7492 10.2131 29.4462 10.4688C29.1479 10.7244 28.7951 10.9162 28.3879 11.044C27.9855 11.1719 27.5309 11.2358 27.0243 11.2358ZM28.0967 8.96308C28.4708 8.96308 28.807 8.88732 29.1052 8.73581C29.4083 8.58429 29.6498 8.37596 29.8297 8.11081C30.0096 7.84092 30.0996 7.52842 30.0996 7.17331V6.13637C30.0001 6.18846 29.8794 6.23581 29.7373 6.27842C29.6 6.32103 29.4485 6.36128 29.2828 6.39916C29.1171 6.43704 28.9466 6.47018 28.7714 6.49859C28.5963 6.527 28.4282 6.55304 28.2672 6.57672C27.9405 6.6288 27.6611 6.70929 27.4291 6.81819C27.2018 6.92709 27.0266 7.06914 26.9035 7.24433C26.7852 7.41478 26.726 7.61838 26.726 7.85512C26.726 8.21497 26.8538 8.48959 27.1095 8.67899C27.3699 8.86838 27.699 8.96308 28.0967 8.96308ZM38.743 11.2358C38.047 11.2358 37.4291 11.1198 36.8893 10.8878C36.3543 10.6511 35.9305 10.2959 35.618 9.82245C35.3103 9.34423 35.1564 8.74528 35.1564 8.02558C35.1564 7.41952 35.2629 6.90815 35.476 6.49149C35.6891 6.07482 35.9826 5.73628 36.3567 5.47586C36.7307 5.21545 37.1616 5.01895 37.6493 4.88637C38.137 4.74906 38.6578 4.65673 39.2118 4.60939C39.832 4.55257 40.3316 4.49338 40.7104 4.43183C41.0891 4.36554 41.3638 4.27321 41.5342 4.15484C41.7094 4.03173 41.797 3.85891 41.797 3.63637V3.60086C41.797 3.23628 41.6715 2.95456 41.4206 2.75569C41.1696 2.55683 40.8311 2.4574 40.405 2.4574C39.9457 2.4574 39.5764 2.55683 39.297 2.75569C39.0177 2.95456 38.8401 3.22918 38.7643 3.57956L35.5612 3.46592C35.6559 2.80304 35.8998 2.21119 36.2927 1.69035C36.6905 1.16478 37.235 0.752852 37.9263 0.454556C38.6223 0.151526 39.458 1.12057e-05 40.4334 1.12057e-05C41.1294 1.12057e-05 41.771 0.0828708 42.3581 0.24859C42.9452 0.409575 43.4566 0.646317 43.8922 0.958817C44.3278 1.26658 44.664 1.64537 44.9007 2.09518C45.1422 2.54499 45.2629 3.05872 45.2629 3.63637V11.0511H41.9959V9.53126H41.9106C41.7165 9.90058 41.4679 10.2131 41.1649 10.4688C40.8666 10.7244 40.5139 10.9162 40.1067 11.044C39.7042 11.1719 39.2497 11.2358 38.743 11.2358ZM39.8155 8.96308C40.1895 8.96308 40.5257 8.88732 40.824 8.73581C41.127 8.58429 41.3685 8.37596 41.5484 8.11081C41.7284 7.84092 41.8183 7.52842 41.8183 7.17331V6.13637C41.7189 6.18846 41.5981 6.23581 41.4561 6.27842C41.3188 6.32103 41.1673 6.36128 41.0016 6.39916C40.8358 6.43704 40.6654 6.47018 40.4902 6.49859C40.315 6.527 40.1469 6.55304 39.9859 6.57672C39.6592 6.6288 39.3799 6.70929 39.1479 6.81819C38.9206 6.92709 38.7454 7.06914 38.6223 7.24433C38.5039 7.41478 38.4447 7.61838 38.4447 7.85512C38.4447 8.21497 38.5726 8.48959 38.8283 8.67899C39.0887 8.86838 39.4177 8.96308 39.8155 8.96308ZM50.4618 11.2358C49.7658 11.2358 49.1479 11.1198 48.6081 10.8878C48.073 10.6511 47.6493 10.2959 47.3368 9.82245C47.029 9.34423 46.8751 8.74528 46.8751 8.02558C46.8751 7.41952 46.9817 6.90815 47.1947 6.49149C47.4078 6.07482 47.7014 5.73628 48.0754 5.47586C48.4495 5.21545 48.8803 5.01895 49.368 4.88637C49.8557 4.74906 50.3766 4.65673 50.9305 4.60939C51.5508 4.55257 52.0503 4.49338 52.4291 4.43183C52.8079 4.36554 53.0825 4.27321 53.253 4.15484C53.4282 4.03173 53.5158 3.85891 53.5158 3.63637V3.60086C53.5158 3.23628 53.3903 2.95456 53.1393 2.75569C52.8884 2.55683 52.5498 2.4574 52.1237 2.4574C51.6644 2.4574 51.2951 2.55683 51.0158 2.75569C50.7364 2.95456 50.5588 3.22918 50.4831 3.57956L47.28 3.46592C47.3747 2.80304 47.6185 2.21119 48.0115 1.69035C48.4092 1.16478 48.9537 0.752852 49.645 0.454556C50.341 0.151526 51.1767 1.12057e-05 52.1521 1.12057e-05C52.8481 1.12057e-05 53.4897 0.0828708 54.0768 0.24859C54.664 0.409575 55.1753 0.646317 55.6109 0.958817C56.0465 1.26658 56.3827 1.64537 56.6195 2.09518C56.8609 2.54499 56.9817 3.05872 56.9817 3.63637V11.0511H53.7146V9.53126H53.6294C53.4353 9.90058 53.1867 10.2131 52.8837 10.4688C52.5854 10.7244 52.2326 10.9162 51.8254 11.044C51.423 11.1719 50.9684 11.2358 50.4618 11.2358ZM51.5342 8.96308C51.9083 8.96308 52.2445 8.88732 52.5427 8.73581C52.8458 8.58429 53.0873 8.37596 53.2672 8.11081C53.4471 7.84092 53.5371 7.52842 53.5371 7.17331V6.13637C53.4376 6.18846 53.3169 6.23581 53.1748 6.27842C53.0375 6.32103 52.886 6.36128 52.7203 6.39916C52.5546 6.43704 52.3841 6.47018 52.2089 6.49859C52.0338 6.527 51.8657 6.55304 51.7047 6.57672C51.378 6.6288 51.0986 6.70929 50.8666 6.81819C50.6393 6.92709 50.4641 7.06914 50.341 7.24433C50.2227 7.41478 50.1635 7.61838 50.1635 7.85512C50.1635 8.21497 50.2913 8.48959 50.547 8.67899C50.8074 8.86838 51.1365 8.96308 51.5342 8.96308Z" fill="#BF9528"/>
</svg>
