<svg width="25" height="25" viewBox="0 0 25 25" fill="none" xmlns="http://www.w3.org/2000/svg">
<path d="M21.9041 16.1132C20.6701 14.8122 19.1873 13.8657 17.6257 13.3502C19.1816 11.947 20.1613 9.91655 20.1613 7.66128C20.1613 3.43687 16.7244 0 12.5 0C8.27559 0 4.83872 3.43687 4.83872 7.66128C4.83872 9.9165 5.81841 11.947 7.37427 13.3503C5.81255 13.8658 4.32993 14.8122 3.0959 16.1133C1.09951 18.2181 0 20.9445 0 23.7903V25H25V23.7903C25 20.9445 23.9005 18.2181 21.9041 16.1132ZM7.25806 7.66128C7.25806 4.7709 9.60957 2.41934 12.5 2.41934C15.3904 2.41934 17.7419 4.77085 17.7419 7.66128C17.7419 10.5517 15.3904 12.9032 12.5 12.9032C9.60962 12.9032 7.25806 10.5517 7.25806 7.66128ZM2.50449 22.5807C3.10498 18.3537 6.77197 15.3226 10.0806 15.3226H14.9193C18.2279 15.3226 21.895 18.3537 22.4955 22.5807H2.50449Z" fill="white"/>
</svg>
