<svg width="14" height="14" viewBox="0 0 14 14" fill="none" xmlns="http://www.w3.org/2000/svg">
<g clip-path="url(#clip0_61_847)">
<rect width="14" height="14" fill="white" fill-opacity="0.01"/>
<g clip-path="url(#clip1_61_847)">
<path d="M10.8454 9.09104C10.3656 9.09662 9.90114 8.9268 9.54477 8.61543C9.18841 8.30405 8.96629 7.87401 8.92269 7.41104C9.21192 7.21235 9.46576 6.96929 9.67422 6.69144C10.1219 6.08458 10.4019 5.37691 10.4876 4.63568C10.523 4.60464 10.5508 4.56639 10.5691 4.52368C10.7498 4.10553 10.8422 3.65652 10.8408 3.2032C10.8707 2.38516 10.565 1.58895 9.99047 0.988688C9.41598 0.388422 8.61948 0.0329466 7.77517 0C7.33191 0.000186915 6.89482 0.10067 6.49874 0.29344C6.34587 0.304555 6.19458 0.330826 6.04725 0.37184C5.69195 0.478562 5.36524 0.659707 5.0903 0.902428C4.81536 1.14515 4.59892 1.4435 4.45633 1.77632C4.13192 2.49785 4.06897 3.30446 4.2777 4.06504C4.32117 4.2302 4.37641 4.39224 4.44303 4.55C4.46039 4.59063 4.48639 4.62727 4.51934 4.65752C4.5709 5.19511 4.73607 5.71669 5.00459 6.18981C5.27311 6.66293 5.63923 7.07748 6.0802 7.40768C6.03743 7.87125 5.81566 8.30212 5.45921 8.61419C5.10276 8.92626 4.63788 9.09655 4.15745 9.09104C3.57884 9.11076 3.03068 9.34711 2.6283 9.75037C2.22592 10.1536 2.00069 10.6924 2 11.2532V13.6853C2.00008 13.7267 2.00859 13.7678 2.02505 13.806C2.04151 13.8443 2.0656 13.879 2.09594 13.9082C2.12628 13.9375 2.16227 13.9606 2.20185 13.9764C2.24144 13.9921 2.28383 14.0001 2.32662 14H12.6745C12.7608 14 12.8436 13.9668 12.9047 13.9077C12.9657 13.8485 13 13.7683 13 13.6847V11.2526C12.9992 10.6924 12.7743 10.1542 12.3725 9.75111C11.9708 9.34805 11.4234 9.11146 10.8454 9.09104ZM6.22877 0.97776C6.35035 0.944944 6.47551 0.926147 6.60164 0.92176C6.64928 0.919658 6.69586 0.907422 6.73807 0.88592C7.05723 0.720805 7.41335 0.634083 7.77517 0.63336C8.44677 0.66644 9.0776 0.955512 9.52999 1.43749C9.98238 1.91947 10.2196 2.55522 10.1899 3.206C10.1899 3.24856 10.1899 3.29112 10.187 3.33312C10.0549 3.20258 9.89718 3.09888 9.72317 3.02811C9.54915 2.95734 9.36231 2.92091 9.17358 2.92096H6.95717C6.83621 2.92103 6.71799 2.88603 6.61775 2.82046C6.5175 2.75489 6.43981 2.66175 6.39468 2.55304C6.36325 2.4776 6.30804 2.4137 6.23693 2.37044C6.16581 2.32718 6.08242 2.30676 5.99862 2.3121C5.91482 2.31743 5.8349 2.34825 5.77025 2.40016C5.70559 2.45207 5.6595 2.52243 5.63853 2.6012C5.50858 3.08017 5.25515 3.51931 4.90204 3.87744C4.57368 2.5704 5.16507 1.27568 6.22877 0.97776ZM5.9455 6.42992C5.50038 5.87565 5.22693 5.21032 5.15698 4.51136C5.56742 4.15668 5.89076 3.71756 6.10332 3.22616C6.13558 3.2549 6.16935 3.282 6.20449 3.30736C6.4213 3.46473 6.68509 3.54945 6.95601 3.54872H9.17358C9.32269 3.54892 9.46856 3.5909 9.5936 3.6696C9.71863 3.74829 9.8175 3.86034 9.87828 3.99224C9.87828 3.99224 9.87828 3.99672 9.87828 3.99896C9.87828 5.77864 8.81228 7.22624 7.50231 7.22624C7.19778 7.21482 6.89978 7.13729 6.63033 6.99936C6.36087 6.86143 6.12683 6.66664 5.9455 6.42936V6.42992ZM6.69298 7.71792C7.21582 7.90192 7.78881 7.90192 8.31165 7.71792C8.42962 8.30848 8.76614 8.83699 9.25799 9.20416L7.54914 11.5612C7.54374 11.568 7.53679 11.5736 7.52882 11.5774C7.52085 11.5812 7.51207 11.5832 7.50318 11.5832C7.49429 11.5832 7.48551 11.5812 7.47754 11.5774C7.46957 11.5736 7.46262 11.568 7.45722 11.5612L5.74779 9.2036C6.23917 8.8362 6.57525 8.30773 6.69298 7.71736V7.71792ZM12.3514 13.37H2.65209V11.2532C2.65255 10.8467 2.81946 10.4569 3.1162 10.1695C3.41294 9.88205 3.81526 9.72036 4.23492 9.71992C4.56062 9.70936 4.88189 9.64359 5.18415 9.5256L6.92364 11.9252C6.98886 12.0151 7.07542 12.0884 7.17603 12.1391C7.27663 12.1898 7.38834 12.2163 7.50173 12.2164C7.61513 12.2163 7.72683 12.1898 7.82744 12.1391C7.92805 12.0884 8.01461 12.0151 8.07983 11.9252L9.81932 9.5256C10.1207 9.64573 10.4422 9.71158 10.768 9.71992C11.1876 9.72036 11.59 9.88205 11.8867 10.1695C12.1834 10.4569 12.3503 10.8467 12.3508 11.2532L12.3514 13.37Z" fill="#D13D9E"/>
</g>
</g>
<defs>
<clipPath id="clip0_61_847">
<rect width="14" height="14" fill="white"/>
</clipPath>
<clipPath id="clip1_61_847">
<rect width="14" height="14" fill="white"/>
</clipPath>
</defs>
</svg>
